999
dxflib 2.2.0.0
  0
SECTION
  2
HEADER
  9
$ACADVER
  1
AC1015
  9
$HANDSEED
  5
FFFF
  9
$SPLINESEGS
 70
8
  9
$DIMEXE
 40
1.25
  9
$PSVPSCALE
 40
0.5
  9
$DIMLUNIT
 70
2
  9
$GRIDMODE
 70
1
  9
$INSUNITS
 70
4
  9
$DIMADEC
 70
2
  9
$DIMASZ
 40
2.5
  9
$DIMGAP
 40
0.625
  9
$DIMTXT
 40
2.5
  9
$GRIDUNIT
 10
0.0
 20
0.0
  9
$DIMEXO
 40
0.625
  9
$LUPREC
 70
1
  9
$PINSBASE
 10
119.6059110505081833
 20
76.6420309843449559
 30
0.0
  9
$DIMAUNIT
 70
0
  9
$AUPREC
 70
2
  9
$PLIMMIN
 10
0.0
 20
0.0
  9
$LUNITS
 70
2
  9
$PLIMMAX
 10
297.0
 20
210.0
  9
$DIMSTYLE
  2
Standard
  9
$AUNITS
 70
0
  0
ENDSEC
  0
SECTION
  2
TABLES
  0
TABLE
  2
VPORT
  5
8
100
AcDbSymbolTable
 70
1
  0
VPORT
  5
30
100
AcDbSymbolTableRecord
100
AcDbViewportTableRecord
  2
*Active
 70
0
 10
0.0
 20
0.0
 11
1.0
 21
1.0
 12
286.3055555555554861
 22
148.5
 13
0.0
 23
0.0
 14
10.0
 24
10.0
 15
10.0
 25
10.0
 16
0.0
 26
0.0
 36
1.0
 17
0.0
 27
0.0
 37
0.0
 40
297.0
 41
1.92798353909465
 42
50.0
 43
0.0
 44
0.0
 50
0.0
 51
0.0
 71
0
 72
100
 73
1
 74
3
 75
1
 76
1
 77
0
 78
0
281
0
 65
1
110
0.0
120
0.0
130
0.0
111
1.0
121
0.0
131
0.0
112
0.0
122
1.0
132
0.0
 79
0
146
0.0
  0
ENDTAB
  0
TABLE
  2
LTYPE
  5
5
100
AcDbSymbolTable
 70
21
  0
LTYPE
  5
14
100
AcDbSymbolTableRecord
100
AcDbLinetypeTableRecord
  2
ByBlock
 70
0
  3

 72
65
 73
0
 40
0.0
  0
LTYPE
  5
15
100
AcDbSymbolTableRecord
100
AcDbLinetypeTableRecord
  2
ByLayer
 70
0
  3

 72
65
 73
0
 40
0.0
  0
LTYPE
  5
16
100
AcDbSymbolTableRecord
100
AcDbLinetypeTableRecord
  2
CONTINUOUS
 70
0
  3
Solid line
 72
65
 73
0
 40
0.0
  0
LTYPE
  5
31
100
AcDbSymbolTableRecord
100
AcDbLinetypeTableRecord
  2
DOT
 70
0
  3
Dot . . . . . . . . . . . . . . . . . . . . . .
 72
65
 73
2
 40
6.3499999999999996
 49
0.0
 74
0
 49
-6.3499999999999996
 74
0
  0
LTYPE
  5
32
100
AcDbSymbolTableRecord
100
AcDbLinetypeTableRecord
  2
DOT2
 70
0
  3
Dot (.5x) .....................................
 72
65
 73
2
 40
3.1749999999999998
 49
0.0
 74
0
 49
-3.1749999999999998
 74
0
  0
LTYPE
  5
33
100
AcDbSymbolTableRecord
100
AcDbLinetypeTableRecord
  2
DOTX2
 70
0
  3
Dot (2x) .  .  .  .  .  .  .  .  .  .  .  .  .
 72
65
 73
2
 40
12.6999999999999993
 49
0.0
 74
0
 49
-12.6999999999999993
 74
0
  0
LTYPE
  5
34
100
AcDbSymbolTableRecord
100
AcDbLinetypeTableRecord
  2
DASHED
 70
0
  3
Dashed __ __ __ __ __ __ __ __ __ __ __ __ __ _
 72
65
 73
2
 40
19.0500000000000007
 49
12.6999999999999993
 74
0
 49
-6.3499999999999996
 74
0
  0
LTYPE
  5
35
100
AcDbSymbolTableRecord
100
AcDbLinetypeTableRecord
  2
DASHED2
 70
0
  3
Dashed (.5x) _ _ _ _ _ _ _ _ _ _ _ _ _ _ _ _ _
 72
65
 73
2
 40
9.5250000000000004
 49
6.3499999999999996
 74
0
 49
-3.1749999999999998
 74
0
  0
LTYPE
  5
36
100
AcDbSymbolTableRecord
100
AcDbLinetypeTableRecord
  2
DASHEDX2
 70
0
  3
Dashed (2x) ____  ____  ____  ____  ____  ___
 72
65
 73
2
 40
38.1000000000000014
 49
25.3999999999999986
 74
0
 49
-12.6999999999999993
 74
0
  0
LTYPE
  5
37
100
AcDbSymbolTableRecord
100
AcDbLinetypeTableRecord
  2
DASHDOT
 70
0
  3
Dash dot __ . __ . __ . __ . __ . __ . __ . __
 72
65
 73
4
 40
25.3999999999999986
 49
12.6999999999999993
 74
0
 49
-6.3499999999999996
 74
0
 49
0.0
 74
0
 49
-6.3499999999999996
 74
0
  0
LTYPE
  5
38
100
AcDbSymbolTableRecord
100
AcDbLinetypeTableRecord
  2
DASHDOT2
 70
0
  3
Dash dot (.5x) _._._._._._._._._._._._._._._.
 72
65
 73
4
 40
12.6999999999999993
 49
6.3499999999999996
 74
0
 49
-3.1749999999999998
 74
0
 49
0.0
 74
0
 49
-3.1749999999999998
 74
0
  0
LTYPE
  5
39
100
AcDbSymbolTableRecord
100
AcDbLinetypeTableRecord
  2
DASHDOTX2
 70
0
  3
Dash dot (2x) ____  .  ____  .  ____  .  ___
 72
65
 73
4
 40
50.7999999999999972
 49
25.3999999999999986
 74
0
 49
-12.6999999999999993
 74
0
 49
0.0
 74
0
 49
-12.6999999999999993
 74
0
  0
LTYPE
  5
3A
100
AcDbSymbolTableRecord
100
AcDbLinetypeTableRecord
  2
DIVIDE
 70
0
  3
Divide ____ . . ____ . . ____ . . ____ . . ____
 72
65
 73
6
 40
31.75
 49
12.6999999999999993
 74
0
 49
-6.3499999999999996
 74
0
 49
0.0
 74
0
 49
-6.3499999999999996
 74
0
 49
0.0
 74
0
 49
-6.3499999999999996
 74
0
  0
LTYPE
  5
3B
100
AcDbSymbolTableRecord
100
AcDbLinetypeTableRecord
  2
DIVIDE2
 70
0
  3
Divide (.5x) __..__..__..__..__..__..__..__.._
 72
65
 73
6
 40
15.875
 49
6.3499999999999996
 74
0
 49
-3.1749999999999998
 74
0
 49
0.0
 74
0
 49
-3.1749999999999998
 74
0
 49
0.0
 74
0
 49
-3.1749999999999998
 74
0
  0
LTYPE
  5
3C
100
AcDbSymbolTableRecord
100
AcDbLinetypeTableRecord
  2
DIVIDEX2
 70
0
  3
Divide (2x) ________  .  .  ________  .  .  _
 72
65
 73
6
 40
63.5
 49
25.3999999999999986
 74
0
 49
-12.6999999999999993
 74
0
 49
0.0
 74
0
 49
-12.6999999999999993
 74
0
 49
0.0
 74
0
 49
-12.6999999999999993
 74
0
  0
LTYPE
  5
3D
100
AcDbSymbolTableRecord
100
AcDbLinetypeTableRecord
  2
CENTER
 70
0
  3
Center ____ _ ____ _ ____ _ ____ _ ____ _ ____
 72
65
 73
4
 40
50.7999999999999972
 49
31.75
 74
0
 49
-6.3499999999999996
 74
0
 49
6.3499999999999996
 74
0
 49
-6.3499999999999996
 74
0
  0
LTYPE
  5
3E
100
AcDbSymbolTableRecord
100
AcDbLinetypeTableRecord
  2
CENTER2
 70
0
  3
Center (.5x) ___ _ ___ _ ___ _ ___ _ ___ _ ___
 72
65
 73
4
 40
28.5749999999999993
 49
19.0500000000000007
 74
0
 49
-3.1749999999999998
 74
0
 49
3.1749999999999998
 74
0
 49
-3.1749999999999998
 74
0
  0
LTYPE
  5
3F
100
AcDbSymbolTableRecord
100
AcDbLinetypeTableRecord
  2
CENTERX2
 70
0
  3
Center (2x) ________  __  ________  __  _____
 72
65
 73
4
 40
101.5999999999999943
 49
63.5
 74
0
 49
-12.6999999999999993
 74
0
 49
12.6999999999999993
 74
0
 49
-12.6999999999999993
 74
0
  0
LTYPE
  5
40
100
AcDbSymbolTableRecord
100
AcDbLinetypeTableRecord
  2
BORDER
 70
0
  3
Border __ __ . __ __ . __ __ . __ __ . __ __ .
 72
65
 73
6
 40
44.4500000000000028
 49
12.6999999999999993
 74
0
 49
-6.3499999999999996
 74
0
 49
12.6999999999999993
 74
0
 49
-6.3499999999999996
 74
0
 49
0.0
 74
0
 49
-6.3499999999999996
 74
0
  0
LTYPE
  5
41
100
AcDbSymbolTableRecord
100
AcDbLinetypeTableRecord
  2
BORDER2
 70
0
  3
Border (.5x) __.__.__.__.__.__.__.__.__.__.__.
 72
65
 73
6
 40
22.2250000000000014
 49
6.3499999999999996
 74
0
 49
-3.1749999999999998
 74
0
 49
6.3499999999999996
 74
0
 49
-3.1749999999999998
 74
0
 49
0.0
 74
0
 49
-3.1749999999999998
 74
0
  0
LTYPE
  5
42
100
AcDbSymbolTableRecord
100
AcDbLinetypeTableRecord
  2
BORDERX2
 70
0
  3
Border (2x) ____  ____  .  ____  ____  .  ___
 72
65
 73
6
 40
88.9000000000000057
 49
25.3999999999999986
 74
0
 49
-12.6999999999999993
 74
0
 49
25.3999999999999986
 74
0
 49
-12.6999999999999993
 74
0
 49
0.0
 74
0
 49
-12.6999999999999993
 74
0
  0
ENDTAB
  0
TABLE
  2
LAYER
  5
2
100
AcDbSymbolTable
 70
6
  0
LAYER
  5
10
100
AcDbSymbolTableRecord
100
AcDbLayerTableRecord
  2
0
 70
0
 62
7
  6
CONTINUOUS
370
0
390
F
  0
LAYER
  5
43
100
AcDbSymbolTableRecord
100
AcDbLayerTableRecord
  2
PVC
 70
0
 62
9
  6
CONTINUOUS
370
0
390
F
  0
LAYER
  5
44
100
AcDbSymbolTableRecord
100
AcDbLayerTableRecord
  2
Alu
 70
0
 62
131
  6
CONTINUOUS
370
60
390
F
  0
LAYER
  5
45
100
AcDbSymbolTableRecord
100
AcDbLayerTableRecord
  2
Alu_fill
 70
0
 62
131
  6
CONTINUOUS
370
0
390
F
  0
LAYER
  5
46
100
AcDbSymbolTableRecord
100
AcDbLayerTableRecord
  2
Dimens
 70
0
 62
7
  6
CONTINUOUS
370
0
390
F
  0
LAYER
  5
47
100
AcDbSymbolTableRecord
100
AcDbLayerTableRecord
  2
Cart
 70
0
 62
7
  6
CONTINUOUS
370
0
390
F
  0
ENDTAB
  0
TABLE
  2
STYLE
  5
3
100
AcDbSymbolTable
 70
1
  0
STYLE
  5
11
100
AcDbSymbolTableRecord
100
AcDbTextStyleTableRecord
  2
Standard
 70
0
 40
0.0
 41
0.75
 50
0.0
 71
0
 42
2.5
  3
txt
  4

  0
ENDTAB
  0
TABLE
  2
VIEW
  5
6
100
AcDbSymbolTable
 70
0
  0
ENDTAB
  0
TABLE
  2
UCS
  5
7
100
AcDbSymbolTable
 70
0
  0
ENDTAB
  0
TABLE
  2
APPID
  5
9
100
AcDbSymbolTable
 70
1
  0
APPID
  5
12
100
AcDbSymbolTableRecord
100
AcDbRegAppTableRecord
  2
ACAD
 70
0
  0
ENDTAB
  0
TABLE
  2
DIMSTYLE
  5
A
100
AcDbSymbolTable
 70
1
100
AcDbDimStyleTable
 71
0
  0
DIMSTYLE
105
27
100
AcDbSymbolTableRecord
100
AcDbDimStyleTableRecord
  2
Standard
 41
2.5
 42
0.625
 43
3.75
 44
1.25
 70
0
 73
0
 74
0
 77
1
 78
8
140
2.5
141
2.5
143
0.03937007874016
147
0.625
171
3
172
1
271
2
272
2
274
3
278
44
283
0
284
8
340
11
  0
ENDTAB
  0
TABLE
  2
BLOCK_RECORD
  5
1
100
AcDbSymbolTable
 70
1
  0
BLOCK_RECORD
  5
1F
100
AcDbSymbolTableRecord
100
AcDbBlockTableRecord
  2
*Model_Space
340
22
  0
BLOCK_RECORD
  5
1B
100
AcDbSymbolTableRecord
100
AcDbBlockTableRecord
  2
*Paper_Space
340
1E
  0
BLOCK_RECORD
  5
23
100
AcDbSymbolTableRecord
100
AcDbBlockTableRecord
  2
*Paper_Space0
340
26
  0
ENDTAB
  0
ENDSEC
  0
SECTION
  2
BLOCKS
  0
BLOCK
  5
20
100
AcDbEntity
  8
0
100
AcDbBlockBegin
  2
*Model_Space
 70
0
 10
0.0
 20
0.0
 30
0.0
  3
*Model_Space
  1

  0
ENDBLK
  5
21
100
AcDbEntity
  8
0
100
AcDbBlockEnd
  0
BLOCK
  5
1C
100
AcDbEntity
 67
1
  8
0
100
AcDbBlockBegin
  2
*Paper_Space
 70
0
 10
0.0
 20
0.0
 30
0.0
  3
*Paper_Space
  1

  0
ENDBLK
  5
1D
100
AcDbEntity
 67
1
  8
0
100
AcDbBlockEnd
  0
BLOCK
  5
24
100
AcDbEntity
  8
0
100
AcDbBlockBegin
  2
*Paper_Space0
 70
0
 10
0.0
 20
0.0
 30
0.0
  3
*Paper_Space0
  1

  0
ENDBLK
  5
25
100
AcDbEntity
  8
0
100
AcDbBlockEnd
  0
ENDSEC
  0
SECTION
  2
ENTITIES
  0
HATCH
  5
48
  8
PVC
 62
256
370
-1
  6
ByLayer
100
AcDbEntity
100
AcDbHatch
 10
0.0
 20
0.0
 30
0.0
210
0.0
220
0.0
230
1.0
  2
ansi31
 70
0
 71
0
 91
1
 92
1
 93
2
 72
2
 10
0.0
 20
100.0
 40
20.0
 50
0.0
 51
360.0
 73
1
 72
2
 10
0.0
 20
100.0
 40
18.0
 50
0.0
 51
360.0
 73
1
 97
0
 75
0
 76
1
 52
0.0
 41
0.5
 77
0
 78
1
 53
45.0
 43
0.0
 44
0.0
 45
-0.0883883476483184
 46
0.0883883476483185
 79
0
 98
0
  0
CIRCLE
  5
49
100
AcDbEntity
100
AcDbCircle
  8
PVC
 62
256
370
-1
  6
ByLayer
 10
0.0
 20
100.0
 30
0.0
 40
20.0
  0
CIRCLE
  5
4A
100
AcDbEntity
100
AcDbCircle
  8
PVC
 62
256
370
-1
  6
ByLayer
 10
0.0
 20
100.0
 30
0.0
 40
18.0
  0
ELLIPSE
  5
4B
100
AcDbEntity
100
AcDbEllipse
  8
Alu
 62
256
370
-1
  6
ByLayer
 10
-61.5000080000011948
 20
100.0
 30
0.0
 11
1.5
 21
3.0
 31
0.0
 40
0.3117223313686831
 41
0.0
 42
6.2831853071795862
  0
LINE
  5
4C
100
AcDbEntity
100
AcDbLine
  8
Alu
 62
256
370
-1
  6
ByLayer
 10
60.0000000000000071
 20
103.0
 30
0.0
 11
20.0000000000000071
 21
103.0
 31
0.0
  0
LINE
  5
4D
100
AcDbEntity
100
AcDbLine
  8
Alu
 62
256
370
-1
  6
ByLayer
 10
19.9999999999999964
 20
97.0
 30
0.0
 11
63.0
 21
96.9999999999999716
 31
0.0
  0
ELLIPSE
  5
4E
100
AcDbEntity
100
AcDbEllipse
  8
Alu
 62
256
370
-1
  6
ByLayer
 10
61.5000000000000142
 20
100.0000000000000284
 30
0.0
 11
-1.5000000000000071
 21
2.9999999999999716
 31
0.0
 40
0.3117223313686831
 41
-6.2831853071795862
 42
-6.2831853071795862
  0
LINE
  5
4F
100
AcDbEntity
100
AcDbLine
  8
Alu
 62
256
370
-1
  6
ByLayer
 10
2.9999999999999778
 20
40.0
 30
0.0
 11
3.0
 21
80.0
 31
0.0
  0
LINE
  5
50
100
AcDbEntity
100
AcDbLine
  8
Alu
 62
256
370
-1
  6
ByLayer
 10
-3.0
 20
80.0
 30
0.0
 11
-3.0000000000000329
 21
37.0
 31
0.0
  0
ELLIPSE
  5
51
100
AcDbEntity
100
AcDbEllipse
  8
Alu
 62
256
370
-1
  6
ByLayer
 10
0.0000000000000292
 20
38.4999999999999858
 30
0.0
 11
2.9999999999999711
 21
1.5000000000000082
 31
0.0
 40
0.3117223313686831
 41
-6.2831853071795862
 42
-6.2831853071795862
  0
ELLIPSE
  5
52
100
AcDbEntity
100
AcDbEllipse
  8
Alu
 62
256
370
-1
  6
ByLayer
 10
0.0000000000000496
 20
161.500001999999995
 30
0.0
 11
2.9999999999999787
 21
-1.5000000000000004
 31
0.0
 40
0.3117223313686831
 41
-6.2831853071795862
 42
-6.2831853071795862
  0
LINE
  5
53
100
AcDbEntity
100
AcDbLine
  8
Dimens
 62
256
370
-1
  6
ByLayer
 10
13.8582477415370242
 20
114.4204358302439744
 30
0.0
 11
-13.8582477415370224
 21
85.5795641697560256
 31
0.0
  0
LINE
  5
54
100
AcDbEntity
100
AcDbLine
  8
Dimens
 62
256
370
-1
  6
ByLayer
 10
13.8582477415370242
 20
114.4204358302439744
 30
0.0
 11
12.4261170835713131
 21
112.3294325555426241
 31
0.0
  0
LINE
  5
55
100
AcDbEntity
100
AcDbLine
  8
Dimens
 62
256
370
-1
  6
ByLayer
 10
12.4261170835713131
 20
112.3294325555426241
 30
0.0
 11
11.8258164641184802
 21
112.9063301473843239
 31
0.0
  0
LINE
  5
56
100
AcDbEntity
100
AcDbLine
  8
Dimens
 62
256
370
-1
  6
ByLayer
 10
11.8258164641184802
 20
112.9063301473843239
 30
0.0
 11
13.8582477415370242
 21
114.4204358302439744
 31
0.0
  0
LINE
  5
57
100
AcDbEntity
100
AcDbLine
  8
Dimens
 62
256
370
-1
  6
ByLayer
 10
-13.8582477415370224
 20
85.5795641697560256
 30
0.0
 11
-12.4261170835713113
 21
87.6705674444573759
 31
0.0
  0
LINE
  5
58
100
AcDbEntity
100
AcDbLine
  8
Dimens
 62
256
370
-1
  6
ByLayer
 10
-12.4261170835713113
 20
87.6705674444573759
 30
0.0
 11
-11.8258164641184784
 21
87.0936698526156761
 31
0.0
  0
LINE
  5
59
100
AcDbEntity
100
AcDbLine
  8
Dimens
 62
256
370
-1
  6
ByLayer
 10
-11.8258164641184784
 20
87.0936698526156761
 30
0.0
 11
-13.8582477415370224
 21
85.5795641697560256
 31
0.0
  0
MTEXT
  5
5A
100
AcDbEntity
100
AcDbMText
  8
Dimens
 62
256
370
-1
  6
ByLayer
 10
-9.999414413770495
 20
92.5790441160025921
 30
0.0
 40
2.5
 41
30.0
 71
5
 72
2
  1
40
  7
standard
 50
406.1389059948070894
 73
1
 44
1.0
  0
DIMENSION
  5
5B
100
AcDbEntity
  8
Dimens
 62
256
370
-1
  6
ByLayer
100
AcDbDimension
 10
-70.1133187699326328
 20
97.0
 30
0.0
 11
-71.9883187699326328
 21
100.0
 31
0.0
 70
0
 71
5
 72
1
 41
1.0
 42
0.0
  1

  3
Standard
100
AcDbAlignedDimension
 13
-60.0000080000011948
 23
103.0
 33
0.0
 14
-63.0000080000011948
 24
97.0
 34
0.0
 50
90.0
100
AcDbRotatedDimension
  0
MTEXT
  5
5C
100
AcDbEntity
100
AcDbMText
  8
Dimens
 62
0
370
-1
  6
ByLayer
 10
-70.0
 20
80.0
 30
0.0
 40
5.0
 41
100.0
 71
5
 72
2
  1
Alluminio
  7
iso
 50
0.0
 73
1
 44
1.0
  0
LINE
  5
5D
100
AcDbEntity
100
AcDbLine
  8
Dimens
 62
256
370
-1
  6
ByLayer
 10
-9.4188459659998145
 20
98.8191727794666406
 30
0.0
 11
-11.8735638461743562
 21
99.4497701510504868
 31
0.0
  0
LINE
  5
5E
100
AcDbEntity
100
AcDbLine
  8
Dimens
 62
256
370
-1
  6
ByLayer
 10
-11.8735638461743562
 20
99.4497701510504868
 30
0.0
 11
-11.5367723400753022
 21
100.2111788104494678
 31
0.0
  0
LINE
  5
5F
100
AcDbEntity
100
AcDbLine
  8
Dimens
 62
256
370
-1
  6
ByLayer
 10
-11.5367723400753022
 20
100.2111788104494678
 30
0.0
 11
-9.4188459659998145
 21
98.8191727794666406
 31
0.0
  0
LEADER
  5
60
  8
Dimens
 62
0
370
-1
  6
ByLayer
100
AcDbEntity
100
AcDbLeader
  3
Standard
 71
1
 72
0
 73
3
 74
0
 75
0
 40
1.0
 41
10.0
 76
2
 10
-60.0
 20
95.0
 10
-69.0
 20
83.0
  0
LINE
  5
61
100
AcDbEntity
100
AcDbLine
  8
Alu
 62
256
370
-1
  6
ByLayer
 10
2.9999999999999964
 20
160.000001999999995
 30
0.0
 11
3.0000000000000036
 21
80.0
 31
0.0
  0
LINE
  5
62
100
AcDbEntity
100
AcDbLine
  8
Alu
 62
256
370
-1
  6
ByLayer
 10
-2.9999999999999627
 20
80.0
 30
0.0
 11
-3.00000000000004
 21
163.000001999999995
 31
0.0
  0
LINE
  5
63
100
AcDbEntity
100
AcDbLine
  8
Alu
 62
256
370
-1
  6
ByLayer
 10
-60.0000080000011948
 20
103.0
 30
0.0
 11
20.0000000000000071
 21
103.0
 31
0.0
  0
LINE
  5
64
100
AcDbEntity
100
AcDbLine
  8
Alu
 62
256
370
-1
  6
ByLayer
 10
19.9999999999999964
 20
97.0
 30
0.0
 11
-63.0000080000011948
 21
97.0
 31
0.0
  0
LINE
  5
65
100
AcDbEntity
100
AcDbLine
  8
Cart
 62
256
370
-1
  6
ByLayer
 10
-199.2118221010163666
 20
-113.2840619686899117
 30
0.0
 11
314.7881778989836334
 21
-113.2840619686899117
 31
0.0
  0
LINE
  5
66
100
AcDbEntity
100
AcDbLine
  8
Cart
 62
256
370
-1
  6
ByLayer
 10
314.7881778989836334
 20
-113.2840619686899117
 30
0.0
 11
314.7881778989836334
 21
226.7159380313100883
 31
0.0
  0
LINE
  5
67
100
AcDbEntity
100
AcDbLine
  8
Cart
 62
256
370
-1
  6
ByLayer
 10
314.7881778989836334
 20
226.7159380313100883
 30
0.0
 11
-199.2118221010163666
 21
226.7159380313100883
 31
0.0
  0
LINE
  5
68
100
AcDbEntity
100
AcDbLine
  8
Cart
 62
256
370
-1
  6
ByLayer
 10
-199.2118221010163666
 20
226.7159380313100883
 30
0.0
 11
-199.2118221010163666
 21
-113.2840619686899117
 31
0.0
  0
MTEXT
  5
69
100
AcDbEntity
100
AcDbMText
  8
Cart
 62
256
370
-1
  6
ByLayer
 10
205.9934258608977018
 20
-93.9244636049688921
 30
0.0
 40
8.0
 41
100.0
 71
5
 72
2
  1
Turnstile 137 MHz per NOAA\PVista dall'alto - sezione riflettori\P
  7
iso
 50
0.0
 73
0
 44
1.0
  0
LINE
  5
6A
100
AcDbEntity
100
AcDbLine
  8
Cart
 62
256
370
-1
  6
ByLayer
 10
314.7881778989836334
 20
-63.2840619686899117
 30
0.0
 11
84.7881778989836334
 21
-63.2840619686899117
 31
0.0
  0
LINE
  5
6B
100
AcDbEntity
100
AcDbLine
  8
Cart
 62
256
370
-1
  6
ByLayer
 10
84.7881778989836334
 20
-63.2840619686899117
 30
0.0
 11
84.7881778989836334
 21
-113.2840619686899117
 31
0.0
  0
MTEXT
  5
6C
100
AcDbEntity
100
AcDbMText
  8
Dimens
 62
256
370
-1
  6
ByLayer
 10
61.5059866404715478
 20
128.484036149312459
 30
0.0
 40
5.0
 41
100.0
 71
5
 72
0
  1
PVC pesante (idraulico)
  7
iso
 50
0.0
 73
1
 44
1.0
  0
LEADER
  5
6D
  8
Dimens
 62
256
370
-1
  6
ByLayer
100
AcDbEntity
100
AcDbLeader
  3
Standard
 71
1
 72
0
 73
3
 74
0
 75
0
 40
1.0
 41
10.0
 76
2
 10
22.107133988212194
 20
110.5356699410609735
 10
32.6134946954813572
 20
122.7930907662083229
  0
ENDSEC
  0
SECTION
  2
OBJECTS
  0
DICTIONARY
  5
C
100
AcDbDictionary
280
0
281
1
  3
ACAD_GROUP
350
D
  3
ACAD_LAYOUT
350
1A
  3
ACAD_MLINESTYLE
350
17
  3
ACAD_PLOTSETTINGS
350
19
  3
ACAD_PLOTSTYLENAME
350
E
  3
AcDbVariableDictionary
350
6E
  0
DICTIONARY
  5
D
100
AcDbDictionary
280
0
281
1
  0
ACDBDICTIONARYWDFLT
  5
E
100
AcDbDictionary
281
1
  3
Normal
350
F
100
AcDbDictionaryWithDefault
340
F
  0
ACDBPLACEHOLDER
  5
F
  0
DICTIONARY
  5
17
100
AcDbDictionary
280
0
281
1
  3
Standard
350
18
  0
MLINESTYLE
  5
18
100
AcDbMlineStyle
  2
STANDARD
 70
0
  3

 62
256
 51
90.0
 52
90.0
 71
2
 49
0.5
 62
256
  6
BYLAYER
 49
-0.5
 62
256
  6
BYLAYER
  0
DICTIONARY
  5
19
100
AcDbDictionary
280
0
281
1
  0
DICTIONARY
  5
1A
100
AcDbDictionary
281
1
  3
Layout1
350
1E
  3
Layout2
350
26
  3
Model
350
22
  0
LAYOUT
  5
1E
100
AcDbPlotSettings
  1

  2
C:\Program Files\AutoCAD 2002\plotters\DWF ePlot (optimized for plotting).pc3
  4

  6

 40
0.0
 41
0.0
 42
0.0
 43
0.0
 44
0.0
 45
0.0
 46
0.0
 47
0.0
 48
0.0
 49
0.0
140
0.0
141
0.0
142
1.0
143
1.0
 70
688
 72
0
 73
0
 74
5
  7

 75
16
147
1.0
148
0.0
149
0.0
100
AcDbLayout
  1
Layout1
 70
1
 71
1
 10
0.0
 20
0.0
 11
420.0
 21
297.0
 12
0.0
 22
0.0
 32
0.0
 14
100000000000000000000.0
 24
100000000000000000000.0
 34
100000000000000000000.0
 15
-100000000000000000000.0
 25
-100000000000000000000.0
 35
-100000000000000000000.0
146
0.0
 13
0.0
 23
0.0
 33
0.0
 16
1.0
 26
0.0
 36
0.0
 17
0.0
 27
1.0
 37
0.0
 76
0
330
1B
  0
LAYOUT
  5
22
100
AcDbPlotSettings
  1

  2
C:\Program Files\AutoCAD 2002\plotters\DWF ePlot (optimized for plotting).pc3
  4

  6

 40
0.0
 41
0.0
 42
0.0
 43
0.0
 44
0.0
 45
0.0
 46
0.0
 47
0.0
 48
0.0
 49
0.0
140
0.0
141
0.0
142
1.0
143
1.0
 70
1712
 72
0
 73
0
 74
0
  7

 75
0
147
1.0
148
0.0
149
0.0
100
AcDbLayout
  1
Model
 70
1
 71
0
 10
0.0
 20
0.0
 11
12.0
 21
9.0
 12
0.0
 22
0.0
 32
0.0
 14
0.0
 24
0.0
 34
0.0
 15
0.0
 25
0.0
 35
0.0
146
0.0
 13
0.0
 23
0.0
 33
0.0
 16
1.0
 26
0.0
 36
0.0
 17
0.0
 27
1.0
 37
0.0
 76
0
330
1F
  0
LAYOUT
  5
26
100
AcDbPlotSettings
  1

  2
C:\Program Files\AutoCAD 2002\plotters\DWF ePlot (optimized for plotting).pc3
  4

  6

 40
0.0
 41
0.0
 42
0.0
 43
0.0
 44
0.0
 45
0.0
 46
0.0
 47
0.0
 48
0.0
 49
0.0
140
0.0
141
0.0
142
1.0
143
1.0
 70
688
 72
0
 73
0
 74
5
  7

 75
16
147
1.0
148
0.0
149
0.0
100
AcDbLayout
  1
Layout2
 70
1
 71
2
 10
0.0
 20
0.0
 11
12.0
 21
9.0
 12
0.0
 22
0.0
 32
0.0
 14
0.0
 24
0.0
 34
0.0
 15
0.0
 25
0.0
 35
0.0
146
0.0
 13
0.0
 23
0.0
 33
0.0
 16
1.0
 26
0.0
 36
0.0
 17
0.0
 27
1.0
 37
0.0
 76
0
330
23
  0
DICTIONARY
  5
6E
100
AcDbDictionary
281
1
  3
DIMASSOC
350
70
  3
HIDETEXT
350
6F
  0
DICTIONARYVAR
  5
6F
100
DictionaryVariables
280
0
  1
2
  0
DICTIONARYVAR
  5
70
100
DictionaryVariables
280
0
  1
1
  0
ENDSEC
  0
EOF
